HIERARCHY
ROOT Hips
{
	OFFSET 0.00000 0.00000 0.00000
	CHANNELS 6 Xposition Yposition Zposition Zrotation Yrotation Xrotation 
	JOINT LHipJoint
	{
		OFFSET 0 0 0
		CHANNELS 3 Zrotation Yrotation Xrotation
		JOINT LeftHip
		{
			OFFSET 1.76014 -1.80163 0.38499
			CHANNELS 3 Zrotation Yrotation Xrotation
			JOINT LeftKnee
			{
				OFFSET 2.46817 -6.78126 0.00000
				CHANNELS 3 Zrotation Yrotation Xrotation
				JOINT LeftAnkle
				{
					OFFSET 2.79348 -7.67503 0.00000
					CHANNELS 3 Zrotation Yrotation Xrotation
					JOINT LeftToe
					{
						OFFSET 0.09421 -0.25885 1.91403
						CHANNELS 3 Zrotation Yrotation Xrotation
						End Site
						{
							OFFSET 0.00000 -0.00000 0.97975
						}
					}
				}
			}
		}
	}
	JOINT RHipJoint
	{
		OFFSET 0 0 0
		CHANNELS 3 Zrotation Yrotation Xrotation
		JOINT RightHip
		{
			OFFSET -1.77926 -1.80163 0.38499
			CHANNELS 3 Zrotation Yrotation Xrotation
			JOINT RightKnee
			{
				OFFSET -2.51996 -6.92353 0.00000
				CHANNELS 3 Zrotation Yrotation Xrotation
				JOINT RightAnkle
				{
					OFFSET -2.76109 -7.58603 0.00000
					CHANNELS 3 Zrotation Yrotation Xrotation
					JOINT RightToe
					{
						OFFSET -0.08067 -0.22163 1.86812
						CHANNELS 3 Zrotation Yrotation Xrotation
						End Site
						{
							OFFSET -0.00000 -0.00000 0.95558
						}
					}
				}
			}
		}
	}
	JOINT lowerback
	{
		OFFSET 0 0 0
		CHANNELS 3 Zrotation Yrotation Xrotation
		JOINT Chest
		{
			OFFSET 0.05537 1.92033 -0.03713
			CHANNELS 3 Zrotation Yrotation Xrotation
			JOINT Chest2
			{
				OFFSET 0.04452 1.90073 0.10860
				CHANNELS 3 Zrotation Yrotation Xrotation
				JOINT lowerneck
				{
					OFFSET 0 0 0
					CHANNELS 3 Zrotation Yrotation Xrotation
					JOINT Neck
					{
						OFFSET 0.00903 1.74649 0.02074
						CHANNELS 3 Zrotation Yrotation Xrotation
						JOINT Head
						{
							OFFSET -0.08608 1.67844 -0.12081
							CHANNELS 3 Zrotation Yrotation Xrotation
							End Site
							{
								OFFSET -0.03521 1.83380 -0.05059
							}
						}
					}
				}
				JOINT LeftCollar
				{
					OFFSET 0 0 0
					CHANNELS 3 Zrotation Yrotation Xrotation
					JOINT LeftShoulder
					{
						OFFSET 3.28197 0.84325 -0.19106
CHANNELS 3 Zrotation Xrotation Yrotation
						JOINT LeftElbow
						{
OFFSET 0 -5.243180 -0.000000
CHANNELS 3 Zrotation Xrotation Yrotation
							JOINT LeftWrist
							{
OFFSET 0 -2.989990 0.000000
CHANNELS 3 Zrotation Xrotation Yrotation
								JOINT lhand
								{
									OFFSET 0 0 0
CHANNELS 3 Zrotation Xrotation Yrotation
									JOINT LFingers
									{
OFFSET 0 -0.726740 0.000000
CHANNELS 3 Zrotation Xrotation Yrotation
										End Site
										{
OFFSET 0 -0.585920 0.000000
										}
									}
								}
								JOINT LThumb
								{
OFFSET 0 0.000000 0.000000
CHANNELS 3 Zrotation Xrotation Yrotation
									End Site
									{
OFFSET 0 -0.594870 0.594870
									}
								}
							}
						}
					}
				}
				JOINT RightCollar
				{
					OFFSET 0 0 0
					CHANNELS 3 Zrotation Yrotation Xrotation
					JOINT RightShoulder
					{
						OFFSET -3.30963 0.78377 0.14264
CHANNELS 3 Zrotation Xrotation Yrotation
						JOINT RightElbow
						{
OFFSET 0 -5.370450 0.000000
CHANNELS 3 Zrotation Xrotation Yrotation
							JOINT RightWrist
							{
OFFSET 0 -2.927920 0.000000
CHANNELS 3 Zrotation Xrotation Yrotation
								JOINT rhand
								{
									OFFSET 0 0 0
CHANNELS 3 Zrotation Xrotation Yrotation
									JOINT RFingers
									{
OFFSET 0 -0.784500 0.000000
CHANNELS 3 Zrotation Xrotation Yrotation
										End Site
										{
OFFSET 0 -0.632480 0.000000
										}
									}
								}
								JOINT RThumb
								{
OFFSET 0 0.000000 0.000000
CHANNELS 3 Zrotation Xrotation Yrotation
									End Site
									{
OFFSET 0 -0.642140 0.642140
									}
								}
							}
						}
					}
				}
			}
		}
	}
}
MOTION
Frames: 10
Frame Time: 0.008333333333333333
0.591100 18.209000 0.941600 -0.708400 -0.541700 27.437100 0.000000 0.000000 0.000000 -9.216500 -27.425600 -25.302000 0.859400 5.911600 16.528000 -1.004300 18.251100 -12.780600 0.275400 -3.375300 -9.325400 0.000000 0.000000 0.000000 7.077000 32.048700 -24.694500 -0.534400 -4.684300 13.010400 0.791500 -22.761000 -26.227500 -1.309400 -7.248500 20.453700 5.815100 -0.668600 15.400700 1.642600 0.646700 -6.767700 -1.594200 -0.206100 -16.459300 2.975100 0.660800 -12.441500 -6.817400 0.728900 0.327100 -2.734000 0.142600 2.352600 0.000000 -0.000000 0.000000 -5.331900 20.746300 14.106100 40.013800 -48.078100 18.449500 38.806500 -14.310800 -31.520300 0.000000 0.000000 0.000000 -7.125000 0.000000 0.000000 10.441400 67.913200 -5.773700 0.000000 -0.000000 0.000000 4.521900 20.126400 -45.262100 -44.639100 -50.590400 -21.959500 -5.918500 166.391400 -4.012300 0.000000 0.000000 0.000000 7.125000 0.000000 -0.000000 15.536000 25.884800 7.456400
0.584078 18.204843 0.933313 -0.632322 -0.836657 27.443070 0.000000 0.000000 0.000000 -9.383576 -27.235018 -25.443055 0.872696 5.956193 16.657283 -1.033073 18.409953 -12.599374 0.341058 -3.752619 -10.381825 0.000000 0.000000 0.000000 6.787856 32.406862 -24.829988 -0.542573 -4.719206 13.109275 0.867611 -23.039619 -26.067482 -1.195859 -6.938572 19.533626 5.595911 -0.612209 15.704285 1.789863 0.711398 -6.593875 -1.323555 -0.138905 -16.434311 3.087581 0.736157 -12.433884 -7.242381 0.809384 -0.069004 -2.891087 0.174148 2.230382 0.000000 0.000000 0.000000 -5.471450 20.549456 14.443697 37.814324 -46.720262 16.830339 36.528736 -15.842580 -31.710725 0.000000 0.000000 0.000000 -7.125000 0.000000 0.000000 6.871589 67.419031 -3.713467 0.000000 0.000000 0.000000 4.640162 20.134027 -45.928475 -44.287372 -50.414484 -21.688115 -7.093397 163.791385 -5.148284 0.000000 0.000000 0.000000 7.125000 0.000000 0.000000 14.542053 24.776832 7.336718
0.584009 18.205122 0.927035 -0.706955 -0.901721 27.443844 0.000000 0.000000 0.000000 -9.340648 -27.116631 -25.531645 0.880261 5.981149 16.729680 -1.042673 18.448269 -12.475396 0.367487 -3.892757 -10.775310 0.000000 0.000000 0.000000 6.820854 32.460165 -24.907717 -0.547530 -4.740341 13.169463 0.844571 -22.910089 -26.033079 -1.116488 -6.712443 18.866198 5.796757 -0.635417 16.027450 1.969690 0.772465 -6.465135 -1.249983 -0.118075 -16.481407 3.094202 0.796344 -12.407396 -7.439509 0.887967 -0.225937 -2.953327 0.209522 2.180735 0.000000 0.000000 0.000000 -5.077645 20.536719 15.078741 35.708038 -45.311063 15.314581 33.666378 -16.615288 -32.506234 0.000000 0.000000 0.000000 -7.125000 0.000000 0.000000 2.323928 67.405157 -1.252518 0.000000 0.000000 0.000000 4.207254 20.144693 -46.509818 -43.314433 -49.915424 -20.941009 -7.687917 161.362999 -7.038871 0.000000 0.000000 0.000000 7.125000 0.000000 0.000000 13.923002 22.921502 7.621573
0.582775 18.203175 0.918383 -0.638439 -1.124472 27.499079 0.000000 0.000000 0.000000 -9.463117 -26.954264 -25.626439 0.874236 5.961018 16.671464 -1.034474 18.413530 -12.573681 0.339216 -3.741475 -10.350617 0.000000 0.000000 0.000000 6.572077 32.593987 -25.177241 -0.563440 -4.807806 13.361185 0.811783 -22.767310 -26.061636 -1.190964 -6.924855 19.493053 5.904849 -0.652645 16.157146 2.154848 0.798905 -6.223387 -1.111052 -0.095137 -16.267389 2.994277 0.957528 -12.453692 -7.724143 1.110146 -0.526375 -3.016412 0.314505 2.105028 0.000000 0.000000 0.000000 -4.224008 20.484942 16.200258 34.371090 -44.357784 14.371914 34.922496 -14.353548 -34.159687 0.000000 0.000000 0.000000 -7.125000 0.000000 0.000000 3.344222 69.563945 -1.965671 0.000000 0.000000 0.000000 3.485438 19.873756 -47.662688 -42.326649 -49.389453 -20.188231 -9.279291 159.905157 -7.767986 0.000000 0.000000 0.000000 7.125000 0.000000 0.000000 12.719755 22.168077 7.153538
0.583247 18.204700 0.915831 -0.608106 -1.264658 27.589780 0.000000 0.000000 0.000000 -9.497972 -26.869356 -25.823688 0.886882 6.002920 16.793056 -1.022293 18.327870 -12.575261 0.328732 -3.684653 -10.191245 0.000000 0.000000 0.000000 6.520998 32.444190 -25.339417 -0.560375 -4.794778 13.324254 0.918501 -22.974529 -25.488221 -1.094614 -6.648692 18.678625 6.303911 -0.635787 16.075249 2.314056 0.915103 -5.981597 -1.193452 -0.060023 -15.914770 2.784744 1.087467 -12.531329 -7.921842 1.302851 -0.811584 -3.030906 0.407449 2.035495 0.000000 0.000000 0.000000 -2.900162 20.614709 17.490373 33.444926 -43.669191 13.728286 32.515562 -15.744499 -32.919596 0.000000 0.000000 0.000000 -7.125000 0.000000 0.000000 0.458370 67.495032 -0.248088 0.000000 0.000000 0.000000 2.299314 19.804343 -49.098081 -41.485637 -48.925817 -19.552017 -11.106163 159.192224 -9.568933 0.000000 0.000000 0.000000 7.125000 0.000000 0.000000 11.305102 20.317222 6.808051
0.584043 18.202983 0.909853 -0.529528 -1.405522 27.678786 0.000000 0.000000 0.000000 -9.582039 -26.804806 -25.902189 0.877498 5.971973 16.703252 -1.025764 18.325706 -12.463943 0.318740 -3.629324 -10.036176 0.000000 0.000000 0.000000 6.260634 32.605964 -25.593614 -0.575942 -4.859941 13.509457 0.914522 -23.012694 -25.597023 -1.161846 -6.842890 19.250834 6.684706 -0.644793 16.151043 2.496864 1.013264 -5.823972 -1.230706 -0.034651 -15.767532 2.953843 1.302977 -11.937861 -8.478946 1.537878 -1.622083 -3.229278 0.535943 1.685719 0.000000 0.000000 0.000000 -1.185599 21.048799 18.560173 33.103476 -43.409408 13.493095 31.781126 -15.654665 -33.173827 0.000000 0.000000 0.000000 -7.125000 0.000000 0.000000 -0.728772 67.539981 0.394898 0.000000 0.000000 0.000000 1.017261 20.184711 -50.341332 -40.727271 -48.494836 -18.982162 -12.900443 158.458320 -10.720191 0.000000 0.000000 0.000000 7.125000 0.000000 0.000000 9.992535 19.076868 6.273336
0.582958 18.201479 0.895079 -0.287999 -1.519134 27.730509 0.000000 0.000000 0.000000 -9.891717 -26.647057 -25.875749 0.845302 5.864099 16.390604 -1.031117 18.275476 -12.081638 0.373705 -3.925473 -10.867273 0.000000 0.000000 0.000000 5.860760 32.680771 -25.985860 -0.613807 -5.014331 13.949390 0.834736 -22.794523 -25.907682 -1.259426 -7.113997 20.053526 6.896838 -0.645104 16.304508 2.698812 1.088452 -5.573745 -1.146981 0.002129 -15.558160 3.188690 1.573930 -11.582462 -9.108166 1.814870 -2.679502 -3.468289 0.686974 1.307394 0.000000 0.000000 0.000000 0.857496 21.354659 19.562172 32.588020 -43.010906 13.140157 29.069363 -15.926233 -35.157691 0.000000 0.000000 0.000000 -7.125000 0.000000 0.000000 -5.968131 68.756363 3.405609 0.000000 0.000000 0.000000 -0.533373 20.454938 -51.645187 -39.959373 -48.045758 -18.409033 -14.736017 157.683013 -11.561959 0.000000 0.000000 0.000000 7.125000 0.000000 0.000000 8.687728 18.115015 5.620958
0.577932 18.195835 0.866238 -0.061992 -1.694513 27.951906 0.000000 0.000000 0.000000 -10.012727 -26.602486 -26.223987 0.831755 5.818216 16.257876 -1.030652 18.225480 -11.870533 0.366630 -3.889177 -10.765102 0.000000 0.000000 0.000000 5.324004 32.733445 -26.731454 -0.656684 -5.183214 14.431747 0.819159 -22.671247 -25.821424 -1.226486 -7.023913 19.786389 7.078260 -0.590327 16.317824 2.910262 1.222459 -5.392187 -1.051549 0.068580 -15.341580 3.499763 1.901412 -11.088139 -9.909697 2.155898 -3.713358 -3.787690 0.873614 0.926835 0.000000 0.000000 0.000000 2.681837 21.300983 20.623902 32.248079 -42.744037 12.908898 26.641085 -17.480678 -35.212417 0.000000 0.000000 0.000000 -7.125000 0.000000 0.000000 -9.303723 68.060143 5.171130 0.000000 0.000000 0.000000 -2.042097 20.532053 -53.288321 -39.159310 -47.563814 -17.816276 -15.459842 156.802514 -12.424399 0.000000 0.000000 0.000000 7.125000 0.000000 0.000000 8.176719 17.184995 5.452007
0.576100 18.196642 0.850472 0.156507 -1.755158 28.024968 0.000000 0.000000 0.000000 -10.237743 -26.545852 -26.201713 0.798953 5.705069 15.931087 -1.019941 18.143629 -11.848431 0.295255 -3.493948 -9.657223 0.000000 0.000000 0.000000 4.824998 33.004541 -27.040022 -0.681097 -5.276781 14.699740 0.693495 -22.410386 -26.451980 -1.330979 -7.303126 20.617752 7.383390 -0.583102 16.514048 3.189051 1.351849 -5.254884 -0.945593 0.120326 -15.295874 3.651078 2.216711 -10.709263 -10.629217 2.498506 -4.622002 -4.056720 1.063582 0.607174 0.000000 0.000000 0.000000 4.320057 21.111846 22.015913 31.333729 -42.009458 12.292629 24.016643 -17.099789 -35.401632 0.000000 0.000000 0.000000 -7.125000 0.000000 0.000000 -12.878844 67.449919 7.001910 0.000000 0.000000 0.000000 -3.735242 21.014523 -55.238052 -38.455553 -47.127676 -17.298644 -17.260156 155.575635 -13.327812 0.000000 0.000000 0.000000 7.125000 0.000000 0.000000 6.938285 16.114454 4.775421
0.568219 18.192534 0.824075 0.374354 -2.006148 28.111996 0.000000 0.000000 0.000000 -10.467680 -26.409137 -26.372819 0.787384 5.664684 15.814465 -1.035431 18.181698 -11.496513 0.359420 -3.850831 -10.657512 0.000000 0.000000 0.000000 4.382566 33.166657 -27.408368 -0.700544 -5.350007 14.909470 0.704681 -22.462819 -26.448855 -1.396768 -7.476652 21.135278 7.532911 -0.571459 16.632399 3.387786 1.422048 -4.998800 -0.830485 0.161875 -15.060038 3.832053 2.657234 -10.706291 -11.278069 3.015129 -5.294236 -4.303996 1.328840 0.447077 0.000000 0.000000 0.000000 6.442553 20.805625 22.320074 29.961585 -40.860216 11.384569 21.973861 -17.680139 -35.661340 0.000000 0.000000 0.000000 -7.125000 0.000000 0.000000 -15.687060 67.089217 8.427651 0.000000 0.000000 0.000000 -5.711009 21.395880 -56.887643 -37.100815 -46.255220 -16.312857 -19.178910 153.843115 -14.783514 0.000000 0.000000 0.000000 7.125000 0.000000 0.000000 5.663505 14.422411 4.094546
